<svg width="46" height="36" viewBox="0 0 46 36" fill="none" xmlns="http://www.w3.org/2000/svg">
<g clip-path="url(#clip0_26_264)">
<path d="M29.75 2.70994C29.75 2.00489 29.1945 0.5 27.507 0.5C26.5241 0.5 25.6177 1.1277 25.3351 2.10384L16.3351 33.1012C16.276 33.3043 16.2478 33.5088 16.2478 33.7101C16.1867 34.4241 16.8125 35.9255 18.5 35.9255C19.4788 35.9255 20.3795 35.292 20.6621 34.3189L29.6621 3.32159C29.7219 3.11609 29.75 2.91129 29.75 2.70994ZM12.875 10.4012C12.875 9.13636 11.8238 8.18706 10.625 8.18706C10.0493 8.18706 9.47328 8.40328 9.03453 8.83579L1.15953 16.5851C0.719727 17.078 0.5 17.6454 0.5 18.1505C0.5 18.6556 0.719727 19.3475 1.15918 19.7765L9.03418 27.5258C9.47188 27.9617 10.0484 28.1139 10.625 28.1139C11.8238 28.1139 12.875 27.1639 12.875 25.8998C12.875 25.3333 12.6553 24.7665 12.2158 24.334L5.93164 18.1505L12.2162 11.9662C12.657 11.5912 12.875 11.0308 12.875 10.4012ZM45.5 18.1505C45.5 17.584 45.2803 17.0172 44.8408 16.5847L36.9658 8.83538C36.5281 8.46383 35.9516 8.18706 35.375 8.18706C34.1762 8.18706 33.125 9.13705 33.125 10.4012C33.125 10.9677 33.3447 11.5345 33.7842 11.9669L40.0687 18.1512L33.7842 24.3354C33.343 24.8274 33.125 25.3947 33.125 25.8998C33.125 27.1646 34.1762 28.1139 35.375 28.1139C35.9507 28.1139 36.5267 27.8977 36.9655 27.4652L44.8405 19.7159C45.282 19.3475 45.5 18.7801 45.5 18.1505Z" fill="white" shape-rendering="optimizeQuality"/>
</g>
<defs>
<clipPath id="clip0_26_264">
<rect width="45" height="35.4255" fill="white" transform="translate(0.5 0.5)"/>
</clipPath>
</defs>
</svg>
