<svg width="46" height="46" viewBox="0 0 46 46" fill="none" xmlns="http://www.w3.org/2000/svg">
<path d="M39.2598 30.0488L39.2545 30.0444C38.3817 29.2376 37.2523 29.0478 36.4279 28.9089L36.3673 28.8983C35.5719 28.7674 35.4462 28.6786 35.0858 28.3561C34.8714 28.1653 34.6156 27.8595 34.6156 27.4824C34.6156 27.1054 34.8714 26.7995 35.085 26.6088L37.7463 24.2472C40.0244 22.2336 41.2795 19.531 41.2795 16.6367C41.2795 13.7425 40.027 11.0398 37.7463 9.02539C34.5919 6.24893 30.2756 4.71875 25.5849 4.71875C20.1629 4.71875 14.7383 6.77275 10.6953 10.3534C6.83955 13.7609 4.71875 18.326 4.71875 23.2065C4.71875 28.0871 6.84219 32.6521 10.6953 36.0588C12.6069 37.7498 14.8692 39.0629 17.4207 39.9629C19.8748 40.8237 22.4552 41.2692 25.0558 41.2812H25.2148C30.5762 41.2812 35.6817 39.4733 39.2237 36.3242C40.0763 35.5719 40.5553 34.4935 40.572 33.2867C40.5904 32.0413 40.1 30.8302 39.2598 30.0488ZM10.3437 18.7812C10.3437 18.225 10.5087 17.6812 10.8177 17.2187C11.1268 16.7562 11.566 16.3957 12.08 16.1828C12.5939 15.97 13.1594 15.9143 13.7049 16.0228C14.2505 16.1313 14.7517 16.3992 15.145 16.7925C15.5383 17.1858 15.8062 17.687 15.9147 18.2326C16.0232 18.7781 15.9675 19.3436 15.7547 19.8575C15.5418 20.3715 15.1813 20.8107 14.7188 21.1198C14.2563 21.4288 13.7125 21.5938 13.1562 21.5938C12.4103 21.5938 11.695 21.2974 11.1675 20.77C10.6401 20.2425 10.3437 19.5272 10.3437 18.7812ZM13.8594 30.6465C13.3031 30.6465 12.7593 30.4815 12.2968 30.1725C11.8343 29.8635 11.4738 29.4242 11.261 28.9103C11.0481 28.3964 10.9924 27.8309 11.1009 27.2853C11.2094 26.7397 11.4773 26.2386 11.8706 25.8452C12.264 25.4519 12.7651 25.184 13.3107 25.0755C13.8563 24.967 14.4218 25.0227 14.9357 25.2356C15.4496 25.4484 15.8888 25.8089 16.1979 26.2714C16.5069 26.734 16.6719 27.2777 16.6719 27.834C16.6719 28.5799 16.3756 29.2953 15.8481 29.8227C15.3207 30.3502 14.6053 30.6465 13.8594 30.6465ZM17.375 13.1562C17.375 12.6 17.5399 12.0562 17.849 11.5937C18.158 11.1312 18.5973 10.7707 19.1112 10.5578C19.6251 10.345 20.1906 10.2893 20.7362 10.3978C21.2818 10.5063 21.7829 10.7742 22.1762 11.1675C22.5696 11.5608 22.8374 12.062 22.946 12.6076C23.0545 13.1531 22.9988 13.7186 22.7859 14.2325C22.573 14.7465 22.2126 15.1857 21.75 15.4948C21.2875 15.8038 20.7438 15.9688 20.1875 15.9688C19.4416 15.9688 18.7262 15.6724 18.1988 15.145C17.6713 14.6175 17.375 13.9022 17.375 13.1562ZM23 36.9746C22.1656 36.9746 21.35 36.7272 20.6562 36.2636C19.9624 35.8001 19.4217 35.1412 19.1024 34.3703C18.7831 33.5994 18.6995 32.7512 18.8623 31.9328C19.0251 31.1145 19.4269 30.3628 20.0169 29.7728C20.6069 29.1827 21.3586 28.781 22.177 28.6182C22.9953 28.4554 23.8436 28.5389 24.6144 28.8582C25.3853 29.1775 26.0442 29.7183 26.5078 30.412C26.9713 31.1058 27.2187 31.9215 27.2187 32.7559C27.2187 33.8747 26.7743 34.9478 25.9831 35.739C25.1919 36.5301 24.1189 36.9746 23 36.9746ZM29.3281 15.9688C28.7719 15.9688 28.2281 15.8038 27.7656 15.4948C27.3031 15.1857 26.9426 14.7465 26.7297 14.2325C26.5168 13.7186 26.4611 13.1531 26.5697 12.6076C26.6782 12.062 26.9461 11.5608 27.3394 11.1675C27.7327 10.7742 28.2339 10.5063 28.7794 10.3978C29.325 10.2893 29.8905 10.345 30.4044 10.5578C30.9183 10.7707 31.3576 11.1312 31.6666 11.5937C31.9757 12.0562 32.1406 12.6 32.1406 13.1562C32.1406 13.9022 31.8443 14.6175 31.3169 15.145C30.7894 15.6724 30.074 15.9688 29.3281 15.9688Z" fill="black" shape-rendering="optimizeQuality"/>
</svg>
